<svg width="389" height="79" viewBox="0 0 389 79" fill="none" xmlns="http://www.w3.org/2000/svg">
<rect x="0.5" y="0.5" width="388" height="78" rx="39" fill="#FF7A00" stroke="#FF7A00"/>
<path d="M88.2207 31.3477V35.791H93.1699C94.054 35.791 94.7695 35.627 95.3164 35.2988C95.8724 34.9616 96.1504 34.3691 96.1504 33.5215C96.1504 32.5827 95.7858 31.9629 95.0566 31.6621C94.4277 31.4525 93.6257 31.3477 92.6504 31.3477H88.2207ZM88.2207 39.127V44.5H93.1699C94.054 44.5 94.7422 44.3815 95.2344 44.1445C96.1276 43.707 96.5742 42.8685 96.5742 41.6289C96.5742 40.5807 96.1413 39.8607 95.2754 39.4688C94.7923 39.25 94.1133 39.1361 93.2383 39.127H88.2207ZM93.9902 27.8477C96.4603 27.8841 98.2103 28.5996 99.2402 29.9941C99.86 30.8509 100.17 31.8763 100.17 33.0703C100.17 34.3008 99.86 35.2897 99.2402 36.0371C98.8939 36.4564 98.3835 36.8392 97.709 37.1855C98.7389 37.5592 99.5137 38.1517 100.033 38.9629C100.562 39.7741 100.826 40.7585 100.826 41.916C100.826 43.11 100.525 44.181 99.9238 45.1289C99.541 45.7578 99.0625 46.2865 98.4883 46.7148C97.8411 47.207 97.0755 47.5443 96.1914 47.7266C95.3164 47.9089 94.3639 48 93.334 48H84.2012V27.8477H93.9902ZM108.578 31.3477V36.7617H113.35C114.298 36.7617 115.008 36.6523 115.482 36.4336C116.321 36.0508 116.74 35.2943 116.74 34.1641C116.74 32.9427 116.335 32.1224 115.523 31.7031C115.068 31.4661 114.384 31.3477 113.473 31.3477H108.578ZM114.348 27.8477C115.76 27.875 116.845 28.0482 117.602 28.3672C118.367 28.6862 119.014 29.1556 119.543 29.7754C119.98 30.2858 120.327 30.8509 120.582 31.4707C120.837 32.0905 120.965 32.7969 120.965 33.5898C120.965 34.5469 120.723 35.4902 120.24 36.4199C119.757 37.3405 118.96 37.9922 117.848 38.375C118.777 38.7487 119.434 39.2819 119.816 39.9746C120.208 40.6582 120.404 41.7064 120.404 43.1191V44.4727C120.404 45.3932 120.441 46.0176 120.514 46.3457C120.623 46.8652 120.878 47.248 121.279 47.4941V48H116.645C116.517 47.5534 116.426 47.1934 116.371 46.9199C116.262 46.3548 116.202 45.776 116.193 45.1836L116.166 43.3105C116.148 42.0254 115.911 41.1686 115.455 40.7402C115.008 40.3118 114.165 40.0977 112.926 40.0977H108.578V48H104.463V27.8477H114.348ZM133.516 44.9922C135.184 44.9922 136.505 44.377 137.48 43.1465C138.465 41.916 138.957 40.166 138.957 37.8965C138.957 35.6361 138.465 33.8906 137.48 32.6602C136.505 31.4206 135.184 30.8008 133.516 30.8008C131.848 30.8008 130.517 31.416 129.523 32.6465C128.53 33.877 128.033 35.627 128.033 37.8965C128.033 40.166 128.53 41.916 129.523 43.1465C130.517 44.377 131.848 44.9922 133.516 44.9922ZM143.168 37.8965C143.168 41.515 142.152 44.2858 140.119 46.209C138.597 47.7767 136.396 48.5605 133.516 48.5605C130.635 48.5605 128.434 47.7767 126.912 46.209C124.87 44.2858 123.85 41.515 123.85 37.8965C123.85 34.2051 124.87 31.4342 126.912 29.584C128.434 28.0163 130.635 27.2324 133.516 27.2324C136.396 27.2324 138.597 28.0163 140.119 29.584C142.152 31.4342 143.168 34.2051 143.168 37.8965ZM149.143 27.8477L151.809 39.3867L152.383 42.5996L152.971 39.4551L155.24 27.8477H159.684L162.076 39.3867L162.691 42.5996L163.307 39.5098L166 27.8477H170.279L164.605 48H160.586L158.152 36.2148L157.441 32.3184L156.73 36.2148L154.297 48H150.387L144.672 27.8477H149.143ZM175.885 41.7793C176.012 42.6999 176.263 43.388 176.637 43.8438C177.32 44.6732 178.492 45.0879 180.15 45.0879C181.144 45.0879 181.951 44.9785 182.57 44.7598C183.746 44.3405 184.334 43.5612 184.334 42.4219C184.334 41.7565 184.042 41.2415 183.459 40.877C182.876 40.5215 181.96 40.207 180.711 39.9336L178.578 39.4551C176.482 38.9811 175.033 38.4661 174.23 37.9102C172.872 36.9805 172.193 35.5267 172.193 33.5488C172.193 31.7441 172.85 30.2448 174.162 29.0508C175.475 27.8568 177.402 27.2598 179.945 27.2598C182.069 27.2598 183.878 27.8249 185.373 28.9551C186.877 30.0762 187.665 31.7077 187.738 33.8496H183.691C183.618 32.6374 183.09 31.776 182.105 31.2656C181.449 30.9284 180.633 30.7598 179.658 30.7598C178.574 30.7598 177.708 30.9785 177.061 31.416C176.413 31.8535 176.09 32.4642 176.09 33.248C176.09 33.9681 176.409 34.5059 177.047 34.8613C177.457 35.0983 178.332 35.3763 179.672 35.6953L183.145 36.5293C184.667 36.8939 185.815 37.3815 186.59 37.9922C187.793 38.9401 188.395 40.3118 188.395 42.1074C188.395 43.9486 187.688 45.4798 186.275 46.7012C184.872 47.9134 182.885 48.5195 180.314 48.5195C177.689 48.5195 175.625 47.9225 174.121 46.7285C172.617 45.5254 171.865 43.8757 171.865 41.7793H175.885ZM206.414 31.416H195.75V35.6953H205.539V39.1953H195.75V44.377H206.906V48H191.635V27.8477H206.414V31.416ZM221.836 48H217.652V27.8477H221.836V48ZM239.131 27.8477H245.188V48H241.264V34.3691C241.264 33.9772 241.268 33.4303 241.277 32.7285C241.286 32.0176 241.291 31.4707 241.291 31.0879L237.477 48H233.389L229.602 31.0879C229.602 31.4707 229.606 32.0176 229.615 32.7285C229.624 33.4303 229.629 33.9772 229.629 34.3691V48H225.705V27.8477H231.83L235.494 43.6934L239.131 27.8477ZM254.607 40.3848H259.721L257.205 32.4551L254.607 40.3848ZM254.867 27.8477H259.625L266.762 48H262.195L260.896 43.8574H253.473L252.078 48H247.676L254.867 27.8477ZM282.881 34.1367C282.562 32.7604 281.783 31.7988 280.543 31.252C279.85 30.9512 279.08 30.8008 278.232 30.8008C276.61 30.8008 275.275 31.416 274.227 32.6465C273.188 33.8678 272.668 35.709 272.668 38.1699C272.668 40.6491 273.233 42.4036 274.363 43.4336C275.493 44.4635 276.779 44.9785 278.219 44.9785C279.632 44.9785 280.789 44.5729 281.691 43.7617C282.594 42.9414 283.15 41.8704 283.359 40.5488H278.697V37.1855H287.092V48H284.303L283.879 45.4844C283.068 46.4414 282.339 47.1159 281.691 47.5078C280.579 48.1914 279.212 48.5332 277.59 48.5332C274.919 48.5332 272.732 47.6081 271.027 45.7578C269.25 43.8984 268.361 41.3555 268.361 38.1289C268.361 34.8659 269.259 32.25 271.055 30.2812C272.85 28.3125 275.225 27.3281 278.178 27.3281C280.739 27.3281 282.794 27.9798 284.344 29.2832C285.902 30.5775 286.796 32.1953 287.023 34.1367H282.881ZM306.027 31.416H295.363V35.6953H305.152V39.1953H295.363V44.377H306.52V48H291.248V27.8477H306.027V31.416Z" fill="white"/>
</svg>
