<svg width="33" height="33" viewBox="0 0 33 33" fill="none" xmlns="http://www.w3.org/2000/svg">
<path fill-rule="evenodd" clip-rule="evenodd" d="M31.1733 1.47489C32.4202 2.7217 32.5297 4.67514 31.5018 6.04605L31.5269 6.07109L31.1831 6.41481L31.1733 6.42464L31.1635 6.43446L21.2738 16.3241L31.1636 26.2139C31.1669 26.2171 31.17 26.2204 31.1733 26.2236C31.1766 26.2269 31.1799 26.2301 31.1831 26.2334L31.5269 26.5772L31.5018 26.6022C32.5297 27.9731 32.4202 29.9266 31.1733 31.1734C29.9265 32.4202 27.9731 32.5297 26.6022 31.5019L26.5772 31.5269L26.2382 31.1879C26.2333 31.1831 26.2284 31.1782 26.2235 31.1734C26.2186 31.1685 26.2137 31.1636 26.2089 31.1587L16.3241 21.2738L6.42456 31.1734L6.07105 31.5269L6.04602 31.5019C4.67517 32.5297 2.72168 32.4202 1.47486 31.1734C0.22803 29.9266 0.118533 27.9731 1.14636 26.6022L1.12134 26.5772L1.46509 26.2334L1.47486 26.2236L1.48462 26.2139L11.3744 16.3241L1.48474 6.43446L1.47486 6.42464L1.46509 6.41481L1.12134 6.07109L1.14636 6.04605C0.118533 4.67514 0.22803 2.72169 1.47486 1.47489C2.72168 0.228091 4.67517 0.118602 6.04602 1.14642L6.07105 1.12134L6.42456 1.47489L16.3241 11.3744L26.2236 1.47489L26.5772 1.12134L26.6022 1.14642C27.973 0.118602 29.9265 0.228091 31.1733 1.47489Z" fill="white"/>
</svg>
