<svg width="155" height="156" viewBox="0 0 155 156" fill="none" xmlns="http://www.w3.org/2000/svg">
<path d="M14.7129 0C6.6146 0 0 6.65728 0 14.8078V141.131C0 149.282 6.6146 156 14.7129 156H140.287C148.385 156 155 149.282 155 141.131V14.8078C155 6.65728 148.385 0 140.287 0H14.7129ZM14.7129 7.8H140.287C144.226 7.8 147.25 10.8436 147.25 14.8078V141.131C147.25 145.096 144.226 148.2 140.287 148.2H14.7129C10.774 148.2 7.75 145.096 7.75 141.131V14.8078C7.75 10.8436 10.774 7.8 14.7129 7.8ZM103.414 42.7781C95.9153 42.7781 89.791 48.9419 89.791 56.4891C89.791 64.0362 95.9153 70.2609 103.414 70.2609C110.913 70.2609 117.098 64.0362 117.098 56.4891C117.098 48.9419 110.913 42.7781 103.414 42.7781ZM103.414 50.5781C106.724 50.5781 109.348 53.1573 109.348 56.4891C109.348 59.8208 106.724 62.4609 103.414 62.4609C100.104 62.4609 97.541 59.8208 97.541 56.4891C97.541 53.1573 100.104 50.5781 103.414 50.5781ZM65.4512 67.7625C62.2759 67.7762 59.1001 69.0582 56.8535 71.6625L26.6406 106.763C26.3065 107.151 26.0517 107.601 25.8906 108.088C25.7296 108.576 25.6655 109.09 25.702 109.602C25.7385 110.114 25.8749 110.614 26.1033 111.073C26.3318 111.533 26.6479 111.942 27.0336 112.278C27.4193 112.614 27.867 112.871 28.3512 113.033C28.8353 113.195 29.3464 113.259 29.8553 113.222C30.3642 113.185 30.8609 113.048 31.317 112.818C31.7731 112.588 32.1798 112.27 32.5137 111.881L62.7266 76.7812C64.5418 74.6768 66.4692 74.6716 68.2363 76.7203L94.6348 107.372C99.1243 112.577 107.337 112.518 111.83 107.311L128.359 88.1156C128.693 87.7275 128.948 87.277 129.109 86.7898C129.27 86.3025 129.335 85.7881 129.298 85.276C129.262 84.7638 129.125 84.2639 128.897 83.8047C128.668 83.3456 128.352 82.9363 127.966 82.6001C127.581 82.264 127.133 82.0076 126.649 81.8456C126.165 81.6836 125.654 81.6192 125.145 81.6561C124.636 81.6929 124.139 81.8303 123.683 82.0603C123.227 82.2904 122.82 82.6086 122.486 82.9969L105.957 102.192C104.142 104.296 102.215 104.303 100.447 102.253L74.0488 71.6625C71.804 69.0607 68.6264 67.7494 65.4512 67.7625Z" fill="black"/>
</svg>
