<svg width="21" height="21" viewBox="0 0 21 21" fill="none" xmlns="http://www.w3.org/2000/svg">
<path d="M10.5 0C13.3218 0 15.9689 1.11963 17.9246 3.07537C18.2775 3.4282 18.6042 3.80501 18.9027 4.20266L18.9 2.1C18.9 1.56152 19.3054 1.1177 19.8276 1.05705L19.95 1.05C20.4885 1.05 20.9323 1.45536 20.9929 1.97756L21 2.1V7.35C21 7.88848 20.5946 8.3323 20.0724 8.39295L19.95 8.4H14.7C14.1201 8.4 13.65 7.9299 13.65 7.35C13.65 6.81152 14.0554 6.3677 14.5776 6.30705L14.7 6.3L17.7766 6.30022C17.4095 5.66586 16.96 5.08064 16.4397 4.5603C14.8739 2.99448 12.7591 2.1 10.5 2.1C5.86081 2.1 2.1 5.86081 2.1 10.5C2.1 15.1392 5.86081 18.9 10.5 18.9C12.7591 18.9 14.8739 18.0055 16.4397 16.4397C17.2198 15.6596 17.8407 14.7337 18.2631 13.715C18.4731 13.2085 18.633 12.6817 18.7401 12.1405C18.8526 11.5716 19.405 11.2017 19.9739 11.3142C20.5428 11.4267 20.9127 11.9791 20.8002 12.548C20.6662 13.2255 20.4659 13.8852 20.2029 14.5194C19.6746 15.7935 18.8988 16.9505 17.9246 17.9246C15.9689 19.8804 13.3218 21 10.5 21C4.70101 21 0 16.299 0 10.5C0 4.70101 4.70101 0 10.5 0Z" fill="white"/>
</svg>
